<svg xmlns="http://www.w3.org/2000/svg" viewBox="0 0 500 500"><g id="freepik--background-simple--inject-20"><path d="M336.68,346c36.24-10.46,86.19-56.32,88.74-96.67,1.74-27.62-4.33-48.41-27.78-67.4C337.49,133.23,278.2,221.08,211.71,158,134.58,84.88,58.16,135.8,81.27,219.79,104.81,305.34,212.21,382,336.68,346Z" style="fill:#407BFF"></path><path d="M336.68,346c36.24-10.46,86.19-56.32,88.74-96.67,1.74-27.62-4.33-48.41-27.78-67.4C337.49,133.23,278.2,221.08,211.71,158,134.58,84.88,58.16,135.8,81.27,219.79,104.81,305.34,212.21,382,336.68,346Z" style="fill:#fff;opacity:0.9"></path></g><g id="freepik--Shadow--inject-20"><path d="M450.32,450.89c0,3.39-91.48,6.14-204.33,6.14s-204.32-2.75-204.32-6.14,91.48-6.14,204.32-6.14S450.32,447.49,450.32,450.89Z" style="fill:#f0f0f0"></path></g><g id="freepik--Paper--inject-20"><path d="M100.93,195.79s-34,3.51-32.54,45.74H151.2S129.21,200.7,100.93,195.79Z" style="fill:#263238"></path><path d="M100.93,195.79s-34,3.51-32.54,45.74H151.2S129.21,200.7,100.93,195.79Z" style="fill:#fff;opacity:0.7000000000000001"></path><path d="M375.3,410.21H200.78s-63-6.45-58.09-90.17c4.4-75.08-17.8-118-41.76-124.25H261.62S309,207.49,310.11,303.9c.29,24.66,8.31,48.51,20.23,67.51C342.59,390.94,359,405.33,375.3,410.21Z" style="fill:#263238"></path><g style="opacity:0.9"><path d="M375.3,410.21H200.78s-63-6.45-58.09-90.17c4.4-75.08-17.8-118-41.76-124.25H261.62S309,207.49,310.11,303.9c.29,24.66,8.31,48.51,20.23,67.51C342.59,390.94,359,405.33,375.3,410.21Z" style="fill:#fff"></path></g><g style="opacity:0.2"><path d="M268.78,226.72H155.45a.5.5,0,0,1,0-1H268.78a.5.5,0,0,1,0,1Z"></path></g><g style="opacity:0.2"><path d="M273.28,241.72H160a.5.5,0,0,1,0-1H273.28a.5.5,0,0,1,0,1Z"></path></g><g style="opacity:0.2"><path d="M277.78,256.72H164.45a.5.5,0,0,1,0-1H277.78a.5.5,0,1,1,0,1Z"></path></g><path d="M229.28,271.72H169a.5.5,0,0,1,0-1h60.33a.5.5,0,0,1,0,1Z" style="opacity:0.2"></path><path d="M379.48,410.21H200.82c11.05-3.45,23.63-13,23.63-38.8H389.61S395.78,399,379.48,410.21Z" style="fill:#263238"></path><path d="M379.48,410.21H200.82c11.05-3.45,23.63-13,23.63-38.8H389.61S395.78,399,379.48,410.21Z" style="fill:#fff;opacity:0.7000000000000001"></path></g><g id="freepik--Books--inject-20"><path d="M112,422.78a2.24,2.24,0,1,1,0-4.48l96.6.06h.23a15.79,15.79,0,0,1,0,31.56h-.48L112,449.88a2.25,2.25,0,0,1,0-4.49Z" style="fill:#407BFF"></path><path d="M163.53,445.45l-97.16-.06V422.78l97.16.06a11.34,11.34,0,0,1,10,6.1h0a11.3,11.3,0,0,1,0,10.43h0A11.29,11.29,0,0,1,163.53,445.45Z" style="fill:#fff"></path><path d="M178.52,434.16a15.8,15.8,0,0,0-15.3-15.79H163l-96.6-.06a2.24,2.24,0,1,0,0,4.48l96.36.06a11.31,11.31,0,0,1,0,22.61l-96.35-.06a2.25,2.25,0,0,0,0,4.49l96.35.06h.48A15.82,15.82,0,0,0,178.52,434.16Z" style="fill:#407BFF"></path><g style="opacity:0.2"><path d="M178.52,434.16a15.8,15.8,0,0,0-15.3-15.79H163l-96.6-.06a2.24,2.24,0,1,0,0,4.48l96.36.06a11.31,11.31,0,0,1,0,22.61l-96.35-.06a2.25,2.25,0,0,0,0,4.49l96.35.06h.48A15.82,15.82,0,0,0,178.52,434.16Z" style="fill:#fff"></path></g><path d="M66.38,429.62l95.94.06a.76.76,0,1,0,0-1.51l-95.94-.06Z" style="opacity:0.2"></path><path d="M66.38,434.84l95.94.06a.76.76,0,0,0,0-1.51l-95.94-.06Z" style="opacity:0.2"></path><path d="M66.37,440.07l95.94.06a.76.76,0,1,0,0-1.51l-95.95-.06Z" style="opacity:0.2"></path><path d="M95,391.14a2.24,2.24,0,0,1,0-4.48l96.6.06h.24a15.78,15.78,0,0,1,0,31.55l-.24,0h-.25l-96.35-.06a2.25,2.25,0,0,1,0-4.49Z" style="fill:#407BFF"></path><g style="opacity:0.5"><path d="M95,391.14a2.24,2.24,0,0,1,0-4.48l96.6.06h.24a15.78,15.78,0,0,1,0,31.55l-.24,0h-.25l-96.35-.06a2.25,2.25,0,0,1,0-4.49Z" style="fill:#fff"></path></g><path d="M146.5,413.81l-97.16-.06,0-22.61,97.16.06a11.29,11.29,0,0,1,10,6.1h0a11.27,11.27,0,0,1,0,10.43h0A11.29,11.29,0,0,1,146.5,413.81Z" style="fill:#fff"></path><path d="M161.49,402.52a15.8,15.8,0,0,0-15.29-15.79H146l-96.6-.06a2.24,2.24,0,0,0,0,4.48l96.35.06a11.31,11.31,0,1,1,0,22.61l-96.36-.06a2.25,2.25,0,0,0,0,4.49l96.35.06h.25l.24,0A15.79,15.79,0,0,0,161.49,402.52Z" style="fill:#407BFF"></path><g style="opacity:0.4"><path d="M161.49,402.52a15.8,15.8,0,0,0-15.29-15.79H146l-96.6-.06a2.24,2.24,0,0,0,0,4.48l96.35.06a11.31,11.31,0,1,1,0,22.61l-96.36-.06a2.25,2.25,0,0,0,0,4.49l96.35.06h.25l.24,0A15.79,15.79,0,0,0,161.49,402.52Z" style="fill:#fff"></path></g><g style="opacity:0.2"><path d="M49.35,398l96,.06a.74.74,0,0,0,.75-.75.76.76,0,0,0-.75-.75l-96-.06Z"></path><path d="M49.35,403.2l95.94.06a.76.76,0,1,0,0-1.51l-95.94-.06Z"></path><path d="M49.35,408.42l95.94.07a.76.76,0,0,0,0-1.51l-95.94-.06Z"></path></g><polygon points="129.13 398.04 129.13 413.76 123.65 408.81 118.19 413.76 118.19 398.04 123.65 398.07 129.13 398.04" style="fill:#407BFF"></polygon></g><g id="freepik--Ink--inject-20"><path d="M186.48,330.63v42.63a13.4,13.4,0,0,1-13.4,13.4h-68a13.4,13.4,0,0,1-13.4-13.4V330.63A2.31,2.31,0,0,1,94,328.32h27.09v-8.51h-4.6v-7.09h45.21v7.09h-4.61v8.51h27.1A2.32,2.32,0,0,1,186.48,330.63Z" style="fill:#407BFF"></path><g style="opacity:0.1"><path d="M186.48,330.63v42.63a13.4,13.4,0,0,1-13.4,13.4h-68a13.4,13.4,0,0,1-13.4-13.4V330.63A2.31,2.31,0,0,1,94,328.32h27.09v-8.51h-4.6v-7.09h45.21v7.09h-4.61v8.51h27.1A2.32,2.32,0,0,1,186.48,330.63Z" style="fill:#fff"></path></g><path d="M179.55,338.23v35a6.49,6.49,0,0,1-6.47,6.49h-68a6.5,6.5,0,0,1-6.47-6.49v-35h29V325.46h23v12.77Z" style="opacity:0.2"></path><path d="M179.38,355.22v18a6.31,6.31,0,0,1-6.3,6.31h-68a6.32,6.32,0,0,1-6.31-6.31V347.58c5.35-2,16.17-3.47,32.82,5.42C149.07,362.34,169.66,362.47,179.38,355.22Z" style="opacity:0.5"></path></g><g id="freepik--Character--inject-20"><path d="M350.54,226.62c-6.59-2-13.24-3.2-20.06-2.39,4.95,1.27,8.9,3,11.09,5.44-35.35,11-60.28,6.22-64.89,5.16.81-3.72,5.08-20.41,19.78-41,1.32,3.27,1.24,7.45.2,12.25,4.06-6,6.13-13.64,7.32-22a182.2,182.2,0,0,1,26.79-25.9,30.91,30.91,0,0,1,.21,13.18c3.27-5.05,5-11.21,5.95-17.87h0q5.65-4.16,12-8.19c20.78-13.18,38.19-18.81,52-20.54.22,5.37-1,11.15-3.25,17.21a54.29,54.29,0,0,0,9.79-17.77c14.21-.63,23.92,2.89,28.87,5.35a6.42,6.42,0,0,1,3.62,5.72c.21,10.19-3.21,36.52-39.12,63.78-5.66-3.68-12.55-4.53-19.86-4.39,5.71,2.52,10.79,5.28,13.81,8.79-2,1.4-4.14,2.8-6.34,4.2A201.78,201.78,0,0,1,350.54,226.62Z" style="fill:#407BFF"></path><g style="opacity:0.4"><path d="M350.54,226.62c-6.59-2-13.24-3.2-20.06-2.39,4.95,1.27,8.9,3,11.09,5.44-35.35,11-60.28,6.22-64.89,5.16.81-3.72,5.08-20.41,19.78-41,1.32,3.27,1.24,7.45.2,12.25,4.06-6,6.13-13.64,7.32-22a182.2,182.2,0,0,1,26.79-25.9,30.91,30.91,0,0,1,.21,13.18c3.27-5.05,5-11.21,5.95-17.87h0q5.65-4.16,12-8.19c20.78-13.18,38.19-18.81,52-20.54.22,5.37-1,11.15-3.25,17.21a54.29,54.29,0,0,0,9.79-17.77c14.21-.63,23.92,2.89,28.87,5.35a6.42,6.42,0,0,1,3.62,5.72c.21,10.19-3.21,36.52-39.12,63.78-5.66-3.68-12.55-4.53-19.86-4.39,5.71,2.52,10.79,5.28,13.81,8.79-2,1.4-4.14,2.8-6.34,4.2A201.78,201.78,0,0,1,350.54,226.62Z" style="fill:#fff"></path></g><path d="M401.58,171.22a.53.53,0,0,1-.63.24c-.09,0-9.46-3.61-22.84,1.8-11.15,7.44-23.25,15.4-35.59,23.36a58.15,58.15,0,0,1,28.34-.58.35.35,0,0,1,.25.51.55.55,0,0,1-.59.32,57.36,57.36,0,0,0-30.46,1.33,0,0,0,0,0,0,0c-4.11,2.64-8.24,5.28-12.35,7.9-61,38.71-93.53,55.8-94.54,56.32,1-.71,31.79-23.78,91.25-61.5l4.37-2.77c8.53-9,9.18-17.63,9.19-17.72a.52.52,0,0,1,.48-.46.36.36,0,0,1,.43.38c0,.08-.57,7.71-7.64,16.25,11.86-7.45,23.79-14.81,35.1-21.68a57.2,57.2,0,0,0,12.82-25.46.54.54,0,0,1,.54-.41.35.35,0,0,1,.35.44,57.86,57.86,0,0,1-11.54,24.1c36.06-21.9,65.36-38.74,65.36-38.74l.24.38S411.37,151.09,381,171.37c12.1-3.9,20.36-.74,20.45-.7A.37.37,0,0,1,401.58,171.22Z" style="fill:#407BFF"></path><g style="opacity:0.2"><path d="M401.58,171.22a.53.53,0,0,1-.63.24c-.09,0-9.46-3.61-22.84,1.8-11.15,7.44-23.25,15.4-35.59,23.36a58.15,58.15,0,0,1,28.34-.58.35.35,0,0,1,.25.51.55.55,0,0,1-.59.32,57.36,57.36,0,0,0-30.46,1.33,0,0,0,0,0,0,0c-4.11,2.64-8.24,5.28-12.35,7.9-61,38.71-93.53,55.8-94.54,56.32,1-.71,31.79-23.78,91.25-61.5l4.37-2.77c8.53-9,9.18-17.63,9.19-17.72a.52.52,0,0,1,.48-.46.36.36,0,0,1,.43.38c0,.08-.57,7.71-7.64,16.25,11.86-7.45,23.79-14.81,35.1-21.68a57.2,57.2,0,0,0,12.82-25.46.54.54,0,0,1,.54-.41.35.35,0,0,1,.35.44,57.86,57.86,0,0,1-11.54,24.1c36.06-21.9,65.36-38.74,65.36-38.74l.24.38S411.37,151.09,381,171.37c12.1-3.9,20.36-.74,20.45-.7A.37.37,0,0,1,401.58,171.22Z"></path></g><polygon points="363.69 433.76 362.86 443.76 357.83 443.75 356.47 433.74 363.69 433.76" style="fill:#ffc3bd"></polygon><path d="M342.25,450.89c.19-3.28,1.61-4.26,3.4-4.37s8.44-2.33,8.44-2.33,1.32-2.09,2.54-2.51,2.43.81,2.43.81l3.34-.4s1-1.5,1.69-.19c1.13,2,1.17,7.67,1.12,9Z" style="fill:#263238"></path><path d="M342.66,450l4.16,0,18.2-.09c.24,0,.18-.35,0-.35h-1.24l0-.05a3.29,3.29,0,0,1,1.1-4.77c.18-.1-.05-.41-.23-.3a3.58,3.58,0,0,0-1.21,5.12H360.8l-18.2.1C342.37,449.68,342.43,450,342.66,450Z" style="fill:#407BFF"></path><path d="M369.55,301.74a335.68,335.68,0,0,1-1.94,40.18q-.75,7.36-1.82,15.71c6.46,33.18-1.36,78.83-1.36,78.83l-8.26-.18S348.48,384.22,346,357c-4.13-44.65-4.1-87.19-4.1-87.19l22.52-1.92S369,276.39,369.55,301.74Z" style="fill:#407BFF"></path><path d="M344,331.25c5.48-14,2.08-38.77,2.08-38.77L343,312.73Z" style="opacity:0.2"></path><polygon points="355.48 438.2 354.77 434.7 365.49 434.7 365.32 438.21 355.48 438.2" style="fill:#263238"></polygon><polygon points="327.85 435.25 327.4 443.72 322.07 443.72 320.36 435.38 327.85 435.25" style="fill:#ffc3bd"></polygon><path d="M306.34,450.89c.18-3.3,1.6-4.29,3.39-4.4s8.43-2.35,8.43-2.35,1.32-2.1,2.53-2.52,2.44.82,2.44.82l4-.32s.3-1.6,1-.28c1.14,2.05,1.2,7.72,1.15,9.05Z" style="fill:#263238"></path><path d="M306.75,450l4.16,0,18.2-.1c.24,0,.18-.35-.06-.35h-1.23l0-.05a3.32,3.32,0,0,1,1.08-4.8c.19-.1-.05-.41-.23-.3a3.61,3.61,0,0,0-1.2,5.15h-2.56l-18.2.1C306.46,449.68,306.52,450,306.75,450Z" style="fill:#407BFF"></path><polygon points="319.02 438.12 318.33 434.62 329.31 434.62 329.12 438.12 319.02 438.12" style="fill:#263238"></polygon><path d="M318.35,270.72s-12.6,78.78-11.35,96,12.8,68.5,12.8,68.5h8.05s1.58-55.81-.39-68.66c0,0,18.5-60.11,20.79-74.11,1.25-9.32-.28-16-3.79-20.76Z" style="fill:#407BFF"></path><path d="M359,199.32s18.29,20.1,17.3,25.81c-1.94,11.11-25.64,7.24-25.64,7.24Z" style="fill:#263238"></path><path d="M315,172.44a.43.43,0,0,1-.43-.7,4.21,4.21,0,0,1,3.6-1.4.43.43,0,0,1-.14.84,3.33,3.33,0,0,0-2.84,1.14.62.62,0,0,1-.19.12" style="fill:#263238"></path><path d="M315.71,174.31a18.92,18.92,0,0,1-1.88,4.78,3,3,0,0,0,2.55.13Z" style="fill:#ed847e"></path><path d="M316.76,174.52c.17.7-.06,1.35-.52,1.46s-1-.36-1.13-1.06.06-1.36.52-1.47,1,.37,1.13,1.07" style="fill:#263238"></path><path d="M315.84,173.44l-1.8-.08s1.18,1.11,1.8.08" style="fill:#263238"></path><path d="M316.39,163s-4,.84-1,6.93l3.22-6Z" style="fill:#263238"></path><path d="M336.47,196.85a11.11,11.11,0,0,0-6.58.84c1.45-2.47.46-5.38-.94-8.06l7.93-10.87c.22,5.45,1.48,15.25,5.95,17.86C342.83,196.62,344.28,198,336.47,196.85Z" style="fill:#ffc3bd"></path><g style="opacity:0.2"><path d="M333.65,183.19,329,189.62a17,17,0,0,1,1.18,2.76c2.15-.85,4.62-4,4.3-6.4a8.05,8.05,0,0,0-.79-2.79"></path></g><path d="M339.32,168.39c.64,8.63,1.1,12.26-2.62,17.25-5.6,7.49-16.34,6.39-19.54-1.87-2.89-7.43-3.46-20.29,4.45-24.84a11.8,11.8,0,0,1,17.71,9.46" style="fill:#ffc3bd"></path><path d="M326.42,155.39s7.91-1.83,13.11,3.31,6.08,18.09-2.43,26.38c.14,2.61-11.22,3.43-14.42-4-1.16-2.71-2.89-4.51-3.35-13.74l-3.23-.92C313.43,165.09,314.18,154.09,326.42,155.39Z" style="fill:#263238"></path><path d="M332.91,155.19s6.84-14.53,18.58-7c7.61,4.9-1.09,24.73,3,30.44,6.89,9.56,12.36.09,12.36.09s-2.86,10.5-13.31,8.36c-11.48-2.36-12.57-13.88-10.83-20.18C342.74,166.94,332.82,164.2,332.91,155.19Z" style="fill:#263238"></path><path d="M327,174.7a6.32,6.32,0,0,1-2.78,4c-1.89,1.17-3.45-.37-3.44-2.47,0-1.89,1-4.78,3.13-5.1A2.84,2.84,0,0,1,327,174.7" style="fill:#ffc3bd"></path><path d="M321.38,179a1.43,1.43,0,1,0,1.12-1.69A1.43,1.43,0,0,0,321.38,179Z" style="fill:#fff"></path><path d="M342.69,167.41h0c-10.34-1.41-9.77-12.11-9.76-12.22a.22.22,0,0,1,.25-.22.23.23,0,0,1,.22.25c0,.42-.54,10.37,9.36,11.72a.24.24,0,0,1-.05.47Z" style="fill:#407BFF"></path><path d="M366.74,265.33c3.14,13.07-48.32,8.71-50.39,6.12s3.88-33.66,4.19-41.17v0c.28-7.46-6.9-16.29-3.89-21.69a24,24,0,0,1,5.51-6c2-1.66,4.13-3.14,5.68-4.17.13-.1.25-.17.36-.24l0,0,1-.62c.69-.43,1.09-.66,1.09-.66a93.23,93.23,0,0,1,13.81-1.53h1.24a32.61,32.61,0,0,1,8,.8c8.42,2.15,9.48,9.75,9.43,18.19S365.39,259.75,366.74,265.33Z" style="fill:#263238"></path><g style="opacity:0.2"><path d="M345.33,195.33l0,.08c-.47,1.54-5.84,5.48-10.61,5.11-4.29-.34-6.46-1.81-6.86-2.11.13-.1.25-.17.36-.24l0,0,1-.62a20.63,20.63,0,0,0,7.05,1.18,11.15,11.15,0,0,0,7.84-3.36h1.25Z"></path></g><path d="M329.25,197.67s-.27-2.12,1-2.74,6.54-4.22,8.57-4.37,3.88,4.81,5.29,4.79S332.67,198.88,329.25,197.67Z" style="fill:#263238"></path><path d="M329.33,213.64c-3.37,9.2-12.54,31.84-21.33,36a8.46,8.46,0,0,1-3.23.76c-11.19.1-22.19-2-33-4.72l1-6.85c9.53.28,23.44.62,30.74-.38a11.07,11.07,0,0,0-1.18.38c3-4.16,5.11-9.44,7.24-14.25,2.24-5.23,4.42-10.67,6.6-15.91l13.1,4.94Z" style="fill:#263238"></path><path d="M272.88,239a33.76,33.76,0,0,0-1.86-4.6c-.48-.56-2.34,1.37-2.34,1.37a6.56,6.56,0,0,0-6.2,1.78,9.15,9.15,0,0,0-3.13,6.3s3.37,2.32,12.56,1.76Z" style="fill:#ffc3bd"></path></g></svg>
